# xmcd CD database file
# Copyright (C) 1996 Ti Kan
#
# Track frame offsets:
# 	150
# 	11717
# 	27160
# 	43765
# 	62295
# 	82980
# 	97232
# 	110522
# 	122747
# 	139960
#
# Disc length: 2146 seconds
#
# Revision: 1
# Processed by: cddbd v1.4b41PL1 Copyright (c) Steve Scherf et al.
# Submitted via: DiscPlay 3.4.1
#
DISCID=8208600a
DTITLE=Foster and Lloyd - Faster and Llouder
DYEAR=1900
DGENRE=
TTITLE0=Faster and Louder
TTITLE1=Fair Shake
TTITLE2=She Know What She Wants
TTITLE3=Happy For Awhile
TTITLE4=Fat Lady Sings
TTITLE5=After I'm Gone
TTITLE6=I'll Always Be Here Loving You
TTITLE7=Suzette
TTITLE8=Before The Heartache Rolls In
TTITLE9=Lie To Yourself
EXTD=
EXTT0=
EXTT1=
EXTT2=
EXTT3=
EXTT4=
EXTT5=
EXTT6=
EXTT7=
EXTT8=
EXTT9=
PLAYORDER=
